<?xml version="1.0" encoding="us-ascii" standalone="no"?><svg xmlns="http://www.w3.org/2000/svg" xmlns:xlink="http://www.w3.org/1999/xlink" contentStyleType="text/css" height="571px" preserveAspectRatio="none" style="width:909px;height:571px;background:#FFFFFF;" version="1.1" viewBox="0 0 909 571" width="909px" zoomAndPan="magnify"><defs/><g><!--class PizzaOrderSystem--><g id="elem_PizzaOrderSystem"><rect codeLine="1" fill="#F1F1F1" height="194.6719" id="PizzaOrderSystem" rx="2.5" ry="2.5" style="stroke:#181818;stroke-width:0.5;" width="801" x="7" y="7"/><ellipse cx="337.25" cy="23" fill="#ADD1B2" rx="11" ry="11" style="stroke:#181818;stroke-width:1.0;"/><path d="M339.5938,18.6719 C338.6563,18.2344 338.0625,18.0938 337.1875,18.0938 C334.5625,18.0938 332.5625,20.1719 332.5625,22.8906 L332.5625,24.0156 C332.5625,26.5938 334.6719,28.4844 337.5625,28.4844 C338.7813,28.4844 339.9375,28.1875 340.6875,27.6406 C341.2656,27.2344 341.5938,26.7813 341.5938,26.3906 C341.5938,25.9375 341.2031,25.5469 340.7344,25.5469 C340.5156,25.5469 340.3125,25.625 340.125,25.8125 C339.6719,26.2969 339.6719,26.2969 339.4844,26.3906 C339.0625,26.6563 338.375,26.7813 337.6094,26.7813 C335.5625,26.7813 334.2656,25.6875 334.2656,23.9844 L334.2656,22.8906 C334.2656,21.1094 335.5156,19.7969 337.25,19.7969 C337.8281,19.7969 338.4375,19.9531 338.9063,20.2031 C339.3906,20.4844 339.5625,20.7031 339.6563,21.1094 C339.7188,21.5156 339.75,21.6406 339.8906,21.7656 C340.0313,21.9063 340.2656,22.0156 340.4844,22.0156 C340.75,22.0156 341.0156,21.875 341.1875,21.6563 C341.2969,21.5 341.3281,21.3125 341.3281,20.8906 L341.3281,19.4688 C341.3281,19.0313 341.3125,18.9063 341.2188,18.75 C341.0625,18.4844 340.7813,18.3438 340.4844,18.3438 C340.1875,18.3438 339.9844,18.4375 339.7656,18.75 L339.5938,18.6719 Z " fill="#000000"/><text fill="#000000" font-family="sans-serif" font-size="14" lengthAdjust="spacing" textLength="132" x="357.75" y="27.8467">PizzaOrderSystem</text><line style="stroke:#181818;stroke-width:0.5;" x1="8" x2="807" y1="39" y2="39"/><rect fill="none" height="6" style="stroke:#C82930;stroke-width:1.0;" width="6" x="15" y="49.6484"/><text fill="#000000" font-family="sans-serif" font-size="14" lengthAdjust="spacing" textLength="265" x="27" y="55.9951">databaseManager: DataBaseManager</text><rect fill="none" height="6" style="stroke:#C82930;stroke-width:1.0;" width="6" x="15" y="65.9453"/><text fill="#000000" font-family="sans-serif" font-size="14" lengthAdjust="spacing" textLength="209" x="27" y="72.292">authenticator: Authenticator</text><rect fill="none" height="6" style="stroke:#C82930;stroke-width:1.0;" width="6" x="15" y="82.2422"/><text fill="#000000" font-family="sans-serif" font-size="14" lengthAdjust="spacing" textLength="278" x="27" y="88.5889">paymentProcessor: PaymentProcessor</text><line style="stroke:#181818;stroke-width:0.5;" x1="8" x2="807" y1="95.8906" y2="95.8906"/><ellipse cx="18" cy="109.5391" fill="#84BE84" rx="3" ry="3" style="stroke:#038048;stroke-width:1.0;"/><text fill="#000000" font-family="sans-serif" font-size="14" lengthAdjust="spacing" textLength="775" x="27" y="112.8857">PizzaOrderSystem(db_manager: DataBaseManager, auth: Authenticator, payment_proc: PaymentProcessor)</text><ellipse cx="18" cy="125.8359" fill="#84BE84" rx="3" ry="3" style="stroke:#038048;stroke-width:1.0;"/><text fill="#000000" font-family="sans-serif" font-size="14" lengthAdjust="spacing" textLength="184" x="27" y="129.1826">placeOrder(order_details)</text><ellipse cx="18" cy="142.1328" fill="#84BE84" rx="3" ry="3" style="stroke:#038048;stroke-width:1.0;"/><text fill="#000000" font-family="sans-serif" font-size="14" lengthAdjust="spacing" textLength="253" x="27" y="145.4795">updateOrder(order_id, new_details)</text><ellipse cx="18" cy="158.4297" fill="#84BE84" rx="3" ry="3" style="stroke:#038048;stroke-width:1.0;"/><text fill="#000000" font-family="sans-serif" font-size="14" lengthAdjust="spacing" textLength="156" x="27" y="161.7764">cancelOrder(order_id)</text><ellipse cx="18" cy="174.7266" fill="#84BE84" rx="3" ry="3" style="stroke:#038048;stroke-width:1.0;"/><text fill="#000000" font-family="sans-serif" font-size="14" lengthAdjust="spacing" textLength="279" x="27" y="178.0732">authenticateUser(username, password)</text><ellipse cx="18" cy="191.0234" fill="#84BE84" rx="3" ry="3" style="stroke:#038048;stroke-width:1.0;"/><text fill="#000000" font-family="sans-serif" font-size="14" lengthAdjust="spacing" textLength="189" x="27" y="194.3701">processPayment(order_id)</text></g><!--class DataBaseManager--><g id="elem_DataBaseManager"><rect codeLine="13" fill="#F1F1F1" height="145.7813" id="DataBaseManager" rx="2.5" ry="2.5" style="stroke:#181818;stroke-width:0.5;" width="324" x="127.5" y="419"/><ellipse cx="220.75" cy="435" fill="#ADD1B2" rx="11" ry="11" style="stroke:#181818;stroke-width:1.0;"/><path d="M223.0938,430.6719 C222.1563,430.2344 221.5625,430.0938 220.6875,430.0938 C218.0625,430.0938 216.0625,432.1719 216.0625,434.8906 L216.0625,436.0156 C216.0625,438.5938 218.1719,440.4844 221.0625,440.4844 C222.2813,440.4844 223.4375,440.1875 224.1875,439.6406 C224.7656,439.2344 225.0938,438.7813 225.0938,438.3906 C225.0938,437.9375 224.7031,437.5469 224.2344,437.5469 C224.0156,437.5469 223.8125,437.625 223.625,437.8125 C223.1719,438.2969 223.1719,438.2969 222.9844,438.3906 C222.5625,438.6563 221.875,438.7813 221.1094,438.7813 C219.0625,438.7813 217.7656,437.6875 217.7656,435.9844 L217.7656,434.8906 C217.7656,433.1094 219.0156,431.7969 220.75,431.7969 C221.3281,431.7969 221.9375,431.9531 222.4063,432.2031 C222.8906,432.4844 223.0625,432.7031 223.1563,433.1094 C223.2188,433.5156 223.25,433.6406 223.3906,433.7656 C223.5313,433.9063 223.7656,434.0156 223.9844,434.0156 C224.25,434.0156 224.5156,433.875 224.6875,433.6563 C224.7969,433.5 224.8281,433.3125 224.8281,432.8906 L224.8281,431.4688 C224.8281,431.0313 224.8125,430.9063 224.7188,430.75 C224.5625,430.4844 224.2813,430.3438 223.9844,430.3438 C223.6875,430.3438 223.4844,430.4375 223.2656,430.75 L223.0938,430.6719 Z " fill="#000000"/><text fill="#000000" font-family="sans-serif" font-size="14" lengthAdjust="spacing" textLength="129" x="241.25" y="439.8467">DataBaseManager</text><line style="stroke:#181818;stroke-width:0.5;" x1="128.5" x2="450.5" y1="451" y2="451"/><rect fill="none" height="6" style="stroke:#C82930;stroke-width:1.0;" width="6" x="135.5" y="461.6484"/><text fill="#000000" font-family="sans-serif" font-size="14" lengthAdjust="spacing" textLength="159" x="147.5" y="467.9951">connection_string: str</text><line style="stroke:#181818;stroke-width:0.5;" x1="128.5" x2="450.5" y1="475.2969" y2="475.2969"/><ellipse cx="138.5" cy="488.9453" fill="#84BE84" rx="3" ry="3" style="stroke:#038048;stroke-width:1.0;"/><text fill="#000000" font-family="sans-serif" font-size="14" lengthAdjust="spacing" textLength="298" x="147.5" y="492.292">DataBaseManager(connection_string: str)</text><ellipse cx="138.5" cy="505.2422" fill="#84BE84" rx="3" ry="3" style="stroke:#038048;stroke-width:1.0;"/><text fill="#000000" font-family="sans-serif" font-size="14" lengthAdjust="spacing" textLength="69" x="147.5" y="508.5889">connect()</text><ellipse cx="138.5" cy="521.5391" fill="#84BE84" rx="3" ry="3" style="stroke:#038048;stroke-width:1.0;"/><text fill="#000000" font-family="sans-serif" font-size="14" lengthAdjust="spacing" textLength="89" x="147.5" y="524.8857">disconnect()</text><ellipse cx="138.5" cy="537.8359" fill="#84BE84" rx="3" ry="3" style="stroke:#038048;stroke-width:1.0;"/><text fill="#000000" font-family="sans-serif" font-size="14" lengthAdjust="spacing" textLength="150" x="147.5" y="541.1826">executeQuery(query)</text><ellipse cx="138.5" cy="554.1328" fill="#84BE84" rx="3" ry="3" style="stroke:#038048;stroke-width:1.0;"/><text fill="#000000" font-family="sans-serif" font-size="14" lengthAdjust="spacing" textLength="101" x="147.5" y="557.4795">fetchResults()</text></g><!--class Authenticator--><g id="elem_Authenticator"><rect codeLine="22" fill="#F1F1F1" height="96.8906" id="Authenticator" rx="2.5" ry="2.5" style="stroke:#181818;stroke-width:0.5;" width="364" x="225.5" y="262"/><ellipse cx="352.75" cy="278" fill="#ADD1B2" rx="11" ry="11" style="stroke:#181818;stroke-width:1.0;"/><path d="M355.0938,273.6719 C354.1563,273.2344 353.5625,273.0938 352.6875,273.0938 C350.0625,273.0938 348.0625,275.1719 348.0625,277.8906 L348.0625,279.0156 C348.0625,281.5938 350.1719,283.4844 353.0625,283.4844 C354.2813,283.4844 355.4375,283.1875 356.1875,282.6406 C356.7656,282.2344 357.0938,281.7813 357.0938,281.3906 C357.0938,280.9375 356.7031,280.5469 356.2344,280.5469 C356.0156,280.5469 355.8125,280.625 355.625,280.8125 C355.1719,281.2969 355.1719,281.2969 354.9844,281.3906 C354.5625,281.6563 353.875,281.7813 353.1094,281.7813 C351.0625,281.7813 349.7656,280.6875 349.7656,278.9844 L349.7656,277.8906 C349.7656,276.1094 351.0156,274.7969 352.75,274.7969 C353.3281,274.7969 353.9375,274.9531 354.4063,275.2031 C354.8906,275.4844 355.0625,275.7031 355.1563,276.1094 C355.2188,276.5156 355.25,276.6406 355.3906,276.7656 C355.5313,276.9063 355.7656,277.0156 355.9844,277.0156 C356.25,277.0156 356.5156,276.875 356.6875,276.6563 C356.7969,276.5 356.8281,276.3125 356.8281,275.8906 L356.8281,274.4688 C356.8281,274.0313 356.8125,273.9063 356.7188,273.75 C356.5625,273.4844 356.2813,273.3438 355.9844,273.3438 C355.6875,273.3438 355.4844,273.4375 355.2656,273.75 L355.0938,273.6719 Z " fill="#000000"/><text fill="#000000" font-family="sans-serif" font-size="14" lengthAdjust="spacing" textLength="101" x="373.25" y="282.8467">Authenticator</text><line style="stroke:#181818;stroke-width:0.5;" x1="226.5" x2="588.5" y1="294" y2="294"/><rect fill="none" height="6" style="stroke:#C82930;stroke-width:1.0;" width="6" x="233.5" y="304.6484"/><text fill="#000000" font-family="sans-serif" font-size="14" lengthAdjust="spacing" textLength="241" x="245.5" y="310.9951">user_database: DataBaseManager</text><line style="stroke:#181818;stroke-width:0.5;" x1="226.5" x2="588.5" y1="318.2969" y2="318.2969"/><ellipse cx="236.5" cy="331.9453" fill="#84BE84" rx="3" ry="3" style="stroke:#038048;stroke-width:1.0;"/><text fill="#000000" font-family="sans-serif" font-size="14" lengthAdjust="spacing" textLength="338" x="245.5" y="335.292">Authenticator(db_manager: DataBaseManager)</text><ellipse cx="236.5" cy="348.2422" fill="#84BE84" rx="3" ry="3" style="stroke:#038048;stroke-width:1.0;"/><text fill="#000000" font-family="sans-serif" font-size="14" lengthAdjust="spacing" textLength="248" x="245.5" y="351.5889">authenticate(username, password)</text></g><!--class PaymentProcessor--><g id="elem_PaymentProcessor"><rect codeLine="28" fill="#F1F1F1" height="96.8906" id="PaymentProcessor" rx="2.5" ry="2.5" style="stroke:#181818;stroke-width:0.5;" width="278" x="624.5" y="262"/><ellipse cx="692.25" cy="278" fill="#ADD1B2" rx="11" ry="11" style="stroke:#181818;stroke-width:1.0;"/><path d="M694.5938,273.6719 C693.6563,273.2344 693.0625,273.0938 692.1875,273.0938 C689.5625,273.0938 687.5625,275.1719 687.5625,277.8906 L687.5625,279.0156 C687.5625,281.5938 689.6719,283.4844 692.5625,283.4844 C693.7813,283.4844 694.9375,283.1875 695.6875,282.6406 C696.2656,282.2344 696.5938,281.7813 696.5938,281.3906 C696.5938,280.9375 696.2031,280.5469 695.7344,280.5469 C695.5156,280.5469 695.3125,280.625 695.125,280.8125 C694.6719,281.2969 694.6719,281.2969 694.4844,281.3906 C694.0625,281.6563 693.375,281.7813 692.6094,281.7813 C690.5625,281.7813 689.2656,280.6875 689.2656,278.9844 L689.2656,277.8906 C689.2656,276.1094 690.5156,274.7969 692.25,274.7969 C692.8281,274.7969 693.4375,274.9531 693.9063,275.2031 C694.3906,275.4844 694.5625,275.7031 694.6563,276.1094 C694.7188,276.5156 694.75,276.6406 694.8906,276.7656 C695.0313,276.9063 695.2656,277.0156 695.4844,277.0156 C695.75,277.0156 696.0156,276.875 696.1875,276.6563 C696.2969,276.5 696.3281,276.3125 696.3281,275.8906 L696.3281,274.4688 C696.3281,274.0313 696.3125,273.9063 696.2188,273.75 C696.0625,273.4844 695.7813,273.3438 695.4844,273.3438 C695.1875,273.3438 694.9844,273.4375 694.7656,273.75 L694.5938,273.6719 Z " fill="#000000"/><text fill="#000000" font-family="sans-serif" font-size="14" lengthAdjust="spacing" textLength="134" x="712.75" y="282.8467">PaymentProcessor</text><line style="stroke:#181818;stroke-width:0.5;" x1="625.5" x2="901.5" y1="294" y2="294"/><rect fill="none" height="6" style="stroke:#C82930;stroke-width:1.0;" width="6" x="632.5" y="304.6484"/><text fill="#000000" font-family="sans-serif" font-size="14" lengthAdjust="spacing" textLength="84" x="644.5" y="310.9951">api_key: str</text><line style="stroke:#181818;stroke-width:0.5;" x1="625.5" x2="901.5" y1="318.2969" y2="318.2969"/><ellipse cx="635.5" cy="331.9453" fill="#84BE84" rx="3" ry="3" style="stroke:#038048;stroke-width:1.0;"/><text fill="#000000" font-family="sans-serif" font-size="14" lengthAdjust="spacing" textLength="228" x="644.5" y="335.292">PaymentProcessor(api_key: str)</text><ellipse cx="635.5" cy="348.2422" fill="#84BE84" rx="3" ry="3" style="stroke:#038048;stroke-width:1.0;"/><text fill="#000000" font-family="sans-serif" font-size="14" lengthAdjust="spacing" textLength="252" x="644.5" y="351.5889">processPayment(order_id, amount)</text></g><!--link PizzaOrderSystem to DataBaseManager--><g id="link_PizzaOrderSystem_DataBaseManager"><path codeLine="34" d="M251.827,202.169 C233.969,219.831 218.315,239.805 207.5,262 C182.759,312.774 203.125,367.8825 231.206,413.8265 " fill="none" id="PizzaOrderSystem-to-DataBaseManager" style="stroke:#181818;stroke-width:1.0;"/><polygon fill="#181818" points="234.335,418.946,233.0544,409.1807,231.7275,414.6798,226.2285,413.3528,234.335,418.946" style="stroke:#181818;stroke-width:1.0;"/></g><!--link PizzaOrderSystem to Authenticator--><g id="link_PizzaOrderSystem_Authenticator"><path codeLine="35" d="M407.5,202.123 C407.5,222.926 407.5,238.028 407.5,255.955 " fill="none" id="PizzaOrderSystem-to-Authenticator" style="stroke:#181818;stroke-width:1.0;"/><polygon fill="#181818" points="407.5,261.955,411.5,252.955,407.5,256.955,403.5,252.955,407.5,261.955" style="stroke:#181818;stroke-width:1.0;"/></g><!--link PizzaOrderSystem to PaymentProcessor--><g id="link_PizzaOrderSystem_PaymentProcessor"><path codeLine="36" d="M576.117,202.123 C612.42,222.926 644.0392,241.0448 675.3232,258.9718 " fill="none" id="PizzaOrderSystem-to-PaymentProcessor" style="stroke:#181818;stroke-width:1.0;"/><polygon fill="#181818" points="680.529,261.955,674.709,254.0097,676.1908,259.469,670.7315,260.9508,680.529,261.955" style="stroke:#181818;stroke-width:1.0;"/></g><!--link Authenticator to DataBaseManager--><g id="link_Authenticator_DataBaseManager"><path codeLine="37" d="M376.188,359.131 C364.171,377.411 353.4679,393.6923 340.2699,413.7693 " fill="none" id="Authenticator-to-DataBaseManager" style="stroke:#181818;stroke-width:1.0;"/><polygon fill="#181818" points="336.974,418.783,345.2603,413.4597,339.7205,414.6049,338.5753,409.0652,336.974,418.783" style="stroke:#181818;stroke-width:1.0;"/></g><!--SRC=[VPF1JiCm38RlVOeSWzQ-m0v88Aw80k8SUQdP8jgar8b6XtXtqhHZJLfsILNxI_xVTY9h86AbEftWgQkmU-t9OiE-CyOALe657H0-WeOzTblsu0Ftbq20mDa3QgiaMEEHk_bl05he6nyfEoEHQ63A9EAnpS83htQY-KSu3wg9M7vM4gq_UAbo4sJQ6YG66Mw6LLHeGTKqPbthQuxIgigPncECIT0IwnWRCxDku1lvjFEBXWO7TqH7Jqy-HbkJoTafFracmr2IcgUPIACrIgkC5cGxfVTRvh_Xo6G3NqUd2iOS7_ygHN40lr0wYyyEkvv_3kiOVqSh3oz8hhR4PrwZGKnEXyh5-GgjtPrDlEtQm9VDNMtidvzqzfCbQ9NumFxIifJZS-BgeFmLR8pJDeWktazHt2uANeNYvxAAB5vBtEmLgLy0]--></g></svg>